<?xml version="1.0" standalone="no"?>
<!DOCTYPE svg PUBLIC "-//W3C//DTD SVG 20010904//EN"
 "http://www.w3.org/TR/2001/REC-SVG-20010904/DTD/svg10.dtd">
<svg version="1.0" xmlns="http://www.w3.org/2000/svg"
 width="225.000000pt" height="225.000000pt" viewBox="0 0 225.000000 225.000000"
 preserveAspectRatio="xMidYMid meet">

<g transform="translate(0.000000,225.000000) scale(0.100000,-0.100000)"
fill="#000000" stroke="none">
<path d="M710 2054 c-36 -8 -87 -17 -113 -19 -59 -6 -129 -26 -187 -54 -24
-12 -63 -21 -87 -21 -47 0 -106 -21 -137 -48 -75 -67 -89 -246 -29 -385 9 -21
21 -36 27 -34 6 2 18 38 26 81 17 88 29 100 82 85 74 -20 113 -89 97 -173 -20
-107 -94 -189 -114 -125 -7 22 -23 21 -39 -3 -17 -28 11 -123 48 -163 49 -52
71 -47 165 35 43 39 88 70 98 70 42 0 132 -82 158 -142 20 -49 19 -76 -5 -123
-25 -49 -25 -49 5 -29 l25 16 0 -44 c0 -32 -8 -56 -25 -82 l-24 -36 30 0 c17
0 39 5 50 10 28 15 24 -1 -15 -59 l-35 -51 28 0 c15 0 44 9 66 20 22 11 41 20
42 20 2 0 3 -12 3 -26 0 -21 14 -89 36 -171 5 -20 27 -6 53 33 18 25 26 31 32
22 12 -18 11 -141 -1 -172 -8 -23 -7 -26 13 -26 31 0 62 24 77 59 29 71 42
-23 14 -105 -13 -39 -13 -48 -2 -56 18 -12 64 -2 99 23 l29 20 0 -35 c0 -19
-4 -46 -10 -60 -12 -31 0 -39 36 -26 33 13 62 45 70 77 4 13 10 23 14 23 14 0
20 -31 20 -110 l0 -79 30 10 c40 15 87 70 100 120 11 39 13 41 28 25 12 -11
18 -39 20 -92 l4 -76 36 6 c19 3 48 18 64 33 22 21 31 24 40 15 7 -7 20 -12
30 -12 29 0 41 37 36 117 -3 40 -4 73 -2 73 10 0 37 -71 48 -124 l13 -61 93
-3 93 -3 -6 58 c-4 41 -20 87 -54 155 -27 55 -42 93 -33 88 8 -4 44 -38 79
-74 35 -37 66 -64 69 -61 3 3 1 25 -5 50 -6 25 -7 45 -4 45 4 0 28 -18 55 -40
26 -22 52 -40 56 -40 13 0 -8 94 -34 154 -15 33 -24 61 -21 64 2 3 -12 28 -33
56 l-37 51 48 -35 c89 -66 87 -64 87 -47 0 37 -45 132 -96 203 -30 41 -54 80
-54 86 0 17 -41 70 -104 136 -33 34 -58 62 -54 62 3 0 26 -12 52 -26 25 -14
46 -21 46 -14 0 14 -69 107 -103 140 -31 29 -34 40 -9 40 17 1 -85 104 -136
138 -15 10 -19 17 -12 22 7 4 -8 21 -40 45 -28 20 -49 39 -47 41 2 2 37 -9 77
-26 40 -16 78 -30 84 -30 6 0 -18 28 -52 63 -34 34 -62 67 -62 73 0 15 -75 84
-129 119 -46 31 -52 40 -18 29 22 -6 22 -6 -3 21 -114 129 -259 210 -445 250
-76 16 -126 34 -97 35 6 0 12 5 12 10 0 15 -154 11 -230 -6z m130 -14 c13 -8
12 -10 -3 -10 -10 0 -15 -4 -12 -10 3 -5 24 -10 45 -10 53 0 141 -20 135 -30
-3 -5 12 -14 32 -21 86 -27 320 -145 310 -155 -2 -2 -28 4 -58 15 -46 16 -199
64 -249 78 -8 2 5 -8 30 -22 25 -14 36 -23 25 -19 -51 17 -95 24 -156 24 -56
0 -70 4 -93 25 -15 14 -35 25 -45 25 -34 0 -33 29 2 45 26 12 28 13 7 10 -14
-2 -43 -7 -65 -10 -21 -4 -56 -15 -77 -26 -46 -23 -55 -24 -37 -2 13 15 12 15
-8 5 -12 -7 -25 -17 -28 -22 -3 -6 -11 -10 -16 -10 -6 0 -7 6 -3 13 5 7 1 7
-10 -2 -15 -13 -19 -13 -27 0 -7 11 -9 9 -9 -8 0 -38 11 -53 41 -53 20 0 44
-14 83 -49 30 -27 68 -52 84 -56 40 -8 91 18 105 54 10 27 13 28 78 27 38 0
65 -4 62 -9 -3 -5 12 -8 36 -5 43 4 49 0 29 -20 -9 -9 3 -12 58 -12 59 -1 67
-2 51 -14 -15 -12 -11 -14 33 -19 86 -10 94 -24 20 -33 -62 -7 -64 -8 -30 -16
19 -5 55 -16 80 -26 l45 -17 -70 -7 c-85 -8 -173 -23 -180 -29 -3 -3 24 -11
58 -17 35 -7 81 -19 103 -27 l39 -14 -65 5 -65 5 80 -34 c90 -37 165 -76 150
-77 -6 0 -42 7 -80 15 -39 8 -90 15 -115 15 l-45 -1 91 -37 c50 -21 123 -60
162 -86 72 -47 104 -77 66 -61 -100 42 -284 94 -284 79 0 -2 26 -20 58 -40 61
-39 172 -125 172 -134 0 -3 -44 16 -97 42 -100 49 -214 83 -313 95 l-55 6 49
-49 c50 -51 156 -185 156 -198 0 -4 -28 18 -62 49 -35 31 -71 61 -81 67 -20
10 86 -133 125 -169 26 -25 97 -58 146 -68 40 -8 41 4 7 69 -14 26 -25 49 -25
52 0 3 15 -6 33 -20 33 -25 122 -55 132 -44 3 3 -2 24 -11 47 -14 35 -27 47
-73 71 -31 15 -65 36 -76 45 -11 9 13 -1 54 -20 41 -20 110 -46 155 -57 45
-11 93 -27 108 -34 68 -35 63 -8 -14 72 -50 52 -57 64 -40 64 11 0 33 -5 47
-10 24 -9 27 -8 21 7 -5 15 -4 15 9 -1 20 -26 14 -29 -29 -18 -20 6 -36 9 -36
8 0 -1 27 -30 60 -64 33 -34 60 -65 60 -71 0 -20 -34 -19 -103 3 -40 13 -86
26 -104 29 l-32 6 15 -34 c29 -70 14 -79 -80 -46 l-54 19 14 -34 c8 -18 14
-38 14 -44 0 -18 -78 -11 -125 12 -36 17 -48 20 -54 10 -9 -14 -33 -8 -72 20
l-27 18 23 -73 c29 -90 40 -147 29 -147 -13 0 -56 40 -93 88 -18 23 -38 42
-45 42 -15 0 -76 58 -76 73 0 6 -16 -6 -35 -28 -20 -21 -37 -36 -39 -34 -2 2
-6 26 -9 53 -3 30 -1 43 4 35 5 -8 9 -25 9 -38 0 -23 1 -24 20 -6 11 10 20 24
20 31 0 28 19 22 44 -16 14 -22 37 -42 49 -45 13 -4 47 -33 76 -66 29 -33 55
-58 57 -56 2 2 -9 50 -26 107 -16 57 -28 105 -27 107 2 1 20 -9 40 -22 40 -28
73 -34 60 -11 -22 40 -196 214 -234 235 l-44 24 26 -29 c14 -16 32 -38 40 -48
13 -18 12 -19 -4 -13 -15 6 -16 4 -6 -14 19 -37 5 -28 -52 32 -59 62 -62 67
-26 47 20 -10 21 -10 8 6 -24 29 -90 57 -148 63 -29 3 -51 8 -48 11 3 3 31 11
63 18 l57 12 -49 1 -49 1 59 42 c32 23 82 55 109 71 36 20 42 27 23 23 -41 -9
-253 -151 -338 -226 -139 -123 -153 -129 -194 -85 -21 23 -51 104 -41 113 2 2
13 -18 25 -44 24 -55 34 -64 72 -64 33 0 58 32 58 75 0 41 14 63 27 41 7 -13
25 -6 123 52 219 129 247 155 236 218 -10 50 -74 110 -172 161 -85 44 -92 53
-114 139 l-13 51 -38 -7 c-53 -10 -50 7 4 20 23 6 55 15 71 20 40 13 46 13 40
-5 -8 -21 3 -19 76 11 94 38 164 51 190 34z m377 -112 c30 -11 73 -39 100 -65
35 -33 40 -40 18 -27 -58 35 -140 80 -177 97 -21 10 -38 20 -38 23 0 6 24 -1
97 -28z m-747 -18 c8 -5 26 -30 40 -57 22 -41 35 -53 102 -88 42 -22 90 -53
108 -68 37 -33 64 -90 55 -118 -8 -25 -99 -93 -217 -162 -96 -57 -118 -66
-118 -47 0 6 -7 10 -15 10 -8 0 -15 5 -15 11 0 8 11 9 31 5 26 -5 49 4 127 46
125 69 182 122 182 170 0 77 -78 122 -244 140 -58 7 -102 16 -99 21 3 5 28 7
55 5 29 -3 44 -2 36 3 -28 18 -89 10 -120 -17 -20 -16 -36 -23 -47 -18 -9 4
-32 8 -50 8 -29 1 -39 -5 -58 -33 -13 -19 -26 -52 -29 -73 -9 -54 -23 -38 -17
19 12 120 61 217 122 243 38 15 55 4 82 -55 22 -49 25 -24 4 35 l-15 42 43 -7
c23 -4 49 -11 57 -15z m318 -42 c6 -48 -75 -77 -91 -34 -4 10 3 13 26 12 29
-1 32 2 32 27 -1 37 29 32 33 -5z m42 -18 c0 -22 -33 -60 -52 -60 -6 0 -2 10
9 23 11 12 23 30 26 40 8 23 17 22 17 -3z m581 -111 c32 -17 66 -40 76 -52 10
-11 14 -18 8 -15 -58 34 -157 98 -151 98 5 0 34 -14 67 -31z m74 -100 c47 -18
131 -76 122 -86 -3 -2 -50 19 -105 47 -56 27 -106 50 -111 50 -5 0 -13 4 -16
10 -8 13 45 3 110 -21z m-829 -40 c-10 -6 -29 -35 -42 -64 -20 -46 -31 -58
-86 -89 -52 -29 -64 -33 -66 -20 -6 25 28 103 51 119 30 21 35 19 31 -12 -4
-28 -4 -28 11 3 19 41 61 74 94 74 23 -1 24 -2 7 -11z m-251 -184 c-16 -42
-46 -85 -59 -85 -4 0 2 13 13 28 11 16 28 54 38 85 12 36 19 49 21 35 2 -11
-4 -40 -13 -63z m1145 52 c45 -27 122 -89 116 -94 -2 -2 -48 26 -102 63 -90
61 -99 81 -14 31z m115 -146 c60 -35 131 -95 147 -124 10 -19 6 -18 -28 7 -21
16 -50 39 -64 51 -14 13 -47 39 -73 59 -58 43 -50 46 18 7z m-1291 -52 c-16
-18 -44 -26 -44 -13 0 3 12 22 28 42 25 33 27 34 30 13 2 -12 -4 -31 -14 -42z
m1445 -189 c33 -28 66 -60 72 -72 l12 -22 -25 20 c-14 10 -63 47 -109 82 -138
103 -139 105 -72 72 34 -16 89 -52 122 -80z m-209 -174 c12 -24 12 -28 0 -36
-28 -18 -68 -11 -154 25 -16 7 -18 5 -14 -13 5 -19 2 -22 -25 -22 -42 0 -126
40 -157 75 -23 25 -20 24 32 -9 32 -22 74 -40 98 -43 l41 -6 -15 37 c-8 20
-27 53 -43 73 l-27 38 32 -29 c17 -16 35 -38 38 -49 8 -25 99 -67 147 -67 20
0 37 4 37 8 0 11 -55 88 -69 97 -6 3 -16 16 -21 28 -15 31 82 -73 100 -107z
m250 -34 l0 -31 -47 27 -48 26 32 -37 c36 -41 73 -108 73 -131 0 -20 -22 -26
-93 -26 -62 0 -120 20 -162 54 -14 12 -8 11 23 -4 55 -27 134 -41 183 -34 l38
6 -20 42 c-12 22 -39 63 -61 89 -22 27 -38 50 -35 53 3 3 28 -6 56 -20 47 -24
51 -25 51 -8 0 10 -25 47 -56 83 l-57 64 62 -62 c48 -48 61 -68 61 -91z m-168
90 c33 3 37 2 22 -9 -9 -7 -21 -14 -27 -16 -6 -2 -5 -12 3 -26 7 -13 16 -37
21 -54 8 -29 8 -29 -23 -23 -17 3 -38 7 -47 7 -9 1 1 5 21 8 l37 6 -19 42
c-13 30 -30 48 -59 63 -51 26 -53 34 -4 14 20 -9 54 -14 75 -12z m268 -73 c25
-26 56 -67 68 -91 23 -42 23 -42 -38 22 -33 36 -80 87 -103 115 l-42 49 35
-24 c19 -14 55 -46 80 -71z m-720 -41 c0 -45 -2 -48 -25 -48 -33 0 -101 34
-108 55 -5 12 0 10 21 -5 38 -28 92 -43 98 -26 4 11 -6 74 -21 122 -4 10 3 3
14 -16 12 -21 20 -54 21 -82z m763 -211 c30 -39 50 -77 45 -83 -3 -2 -18 15
-36 39 -17 23 -41 55 -53 71 -22 28 -22 29 -1 17 12 -6 32 -26 45 -44z m-160
-205 c16 -29 26 -52 24 -52 -2 0 -25 30 -50 68 -25 37 -56 81 -68 97 -11 17
-2 10 23 -16 23 -25 56 -69 71 -97z"/>
<path d="M965 1481 c-15 -7 -4 -10 41 -10 33 -1 96 -10 139 -21 100 -26 105
-24 26 6 -70 27 -174 39 -206 25z"/>
<path d="M926 1426 c33 -8 93 -25 133 -39 82 -29 81 -12 -2 23 -32 14 -78 24
-122 26 l-70 4 61 -14z"/>
<path d="M710 1371 c0 -5 20 -14 45 -20 25 -6 70 -22 101 -36 31 -14 60 -22
65 -19 5 3 18 0 30 -7 40 -21 10 10 -34 35 -58 34 -207 68 -207 47z"/>
<path d="M410 1881 c0 -14 41 -41 62 -41 27 0 21 18 -12 35 -33 17 -50 19 -50
6z"/>
</g>
</svg>
